<mxfile host="app.diagrams.net" modified="2024-02-24T10:55:11.480Z" agent="Mozilla/5.0 (Windows NT 10.0; Win64; x64; rv:122.0) Gecko/20100101 Firefox/122.0" version="23.1.6" etag="-JNiMLP9zWlNw7wUPVe6" type="github">
  <diagram name="Page-1" id="Yb8K1JPAfoywlpaUDArD">
    <mxGraphModel>
      <root>
        <mxCell id="0" />
        <mxCell id="1" parent="0" />
      </root>
    </mxGraphModel>
  </diagram>
</mxfile>
